<svg width="188" height="146" viewBox="0 0 188 146" fill="none" xmlns="http://www.w3.org/2000/svg">
<path d="M41.1634 16.0594C43.6861 16.0588 46.2023 16.3137 48.6736 16.8202C53.4432 17.8025 57.9717 19.7178 61.9987 22.4558C67.5778 26.2373 72.0353 31.4517 74.9027 37.5512C77.7701 43.6507 78.9416 50.41 78.2939 57.1187C77.6462 63.8274 75.2033 70.2378 71.222 75.6761C67.2407 81.1144 61.868 85.3798 55.6685 88.0241C53.4149 88.9817 51.0716 89.7128 48.6733 90.2067C43.4727 91.2613 38.1072 91.1955 32.9341 90.0139C27.7609 88.8322 22.899 86.5618 18.6721 83.3538C14.4451 80.1459 10.9503 76.0741 8.42041 71.4096C5.8905 66.7452 4.38356 61.5952 3.99998 56.3027C8.0779 57.257 12.3139 57.3184 16.4178 56.4826C20.1004 55.7284 23.5984 54.2565 26.7123 52.1508C31.3411 49.0259 34.9644 44.6257 37.1429 39.4832C37.879 37.7416 38.4409 35.9314 38.8203 34.079C39.629 30.1101 39.599 26.0159 38.7325 22.0592C38.2966 20.0807 37.6519 18.1541 36.8093 16.3117C38.2546 16.1435 39.7084 16.0593 41.1634 16.0594Z" fill="#713FFD"/>
<g filter="url(#filter0_f_1_621)">
<path d="M66.3804 27.6378C58.0152 20.1058 47.0567 18.6393 41.9038 24.3621C36.751 30.085 39.355 40.8302 47.7201 48.3621C56.0852 55.8941 67.0437 57.3607 72.1966 51.6378C77.3495 45.915 74.7455 35.1698 66.3804 27.6378Z" fill="#A586FC"/>
</g>
<g filter="url(#filter1_d_1_621)">
<path d="M114.841 114H45.9493C39.2663 113.995 32.8443 111.405 28.0278 106.772C23.2113 102.139 20.3736 95.8224 20.1089 89.1447C19.8443 82.4669 22.173 75.9456 26.6077 70.946C31.0424 65.9464 37.2392 62.8561 43.9009 62.3221C44.8508 55.614 47.88 49.3726 52.5622 44.4759C57.2444 39.5792 63.3439 36.2737 70.0027 35.0244C76.6615 33.775 83.5444 34.6448 89.6831 37.5112C95.8218 40.3777 100.907 45.0966 104.224 51.004C110.308 48.8981 116.881 48.652 123.105 50.2972C129.33 51.9425 134.923 55.4044 139.171 60.2415C143.419 65.0786 146.131 71.0716 146.959 77.456C147.787 83.8404 146.695 90.3268 143.822 96.088C142.136 101.293 138.844 105.83 134.419 109.048C129.994 112.266 124.664 114 119.192 114H114.841Z" fill="url(#paint0_linear_1_621)"/>
<path d="M119.193 113.64C121.971 113.64 124.702 113.196 127.311 112.321C129.834 111.475 132.202 110.241 134.351 108.652C136.474 107.082 138.336 105.2 139.884 103.061C141.451 100.894 142.661 98.5109 143.48 95.9771L143.488 95.9511L143.501 95.9267C144.59 93.7502 145.429 91.4477 145.994 89.0834C146.575 86.6504 146.87 84.1364 146.87 81.6111C146.87 79.4377 146.651 77.2659 146.219 75.1558C145.798 73.0996 145.171 71.077 144.353 69.1442C143.55 67.2464 142.557 65.416 141.4 63.7038C140.254 62.0077 138.938 60.4128 137.489 58.9634C136.039 57.5139 134.444 56.198 132.748 55.0521C131.036 53.8954 129.206 52.9018 127.308 52.0992C125.375 51.2816 123.353 50.6538 121.296 50.233C119.186 49.8012 117.014 49.5823 114.841 49.5823C111.243 49.5823 107.71 50.1745 104.343 51.3425L104.058 51.4411L103.911 51.1789C101.17 46.3055 97.1836 42.2128 92.382 39.3433C89.9537 37.8921 87.3449 36.7706 84.6281 36.0101C81.8252 35.2255 78.9138 34.8276 75.9748 34.8276C72.0217 34.8276 68.1628 35.5391 64.5054 36.9423C60.9721 38.2978 57.7309 40.2559 54.8717 42.7621C52.029 45.254 49.6699 48.1941 47.86 51.5009C46.0056 54.8889 44.7936 58.5459 44.2576 62.3706L44.2175 62.6568L43.9293 62.6794C40.7055 62.9317 37.6038 63.7805 34.7104 65.2022C31.8989 66.5835 29.3883 68.4519 27.2485 70.7554C22.8515 75.4887 20.4299 81.6556 20.4299 88.1202C20.4299 91.5655 21.1046 94.9075 22.4353 98.0535C23.0748 99.5655 23.8664 101.024 24.7881 102.388C25.7011 103.74 26.7496 105.01 27.9045 106.165C29.0594 107.32 30.3302 108.369 31.6816 109.282C33.0458 110.203 34.5042 110.995 36.0163 111.635C39.1623 112.965 42.5043 113.64 45.9496 113.64H114.841H119.193ZM119.193 114H114.841H45.9496C31.6568 114 20.0701 102.413 20.0701 88.1202C20.0701 74.5166 30.5657 63.3645 43.9013 62.3206C46.1071 46.5802 59.6263 34.4678 75.9748 34.4678C88.1033 34.4678 98.6745 41.1338 104.225 51.0025C107.551 49.849 111.123 49.2224 114.841 49.2224C132.729 49.2224 147.23 63.7235 147.23 81.6111C147.23 86.8146 146.003 91.7311 143.822 96.0878C140.462 106.482 130.705 114 119.193 114Z" fill="white" fill-opacity="0.5"/>
</g>
<defs>
<filter id="filter0_f_1_621" x="19.2583" y="0.871094" width="75.5839" height="74.2578" filterUnits="userSpaceOnUse" color-interpolation-filters="sRGB">
<feFlood flood-opacity="0" result="BackgroundImageFix"/>
<feBlend mode="normal" in="SourceGraphic" in2="BackgroundImageFix" result="shape"/>
<feGaussianBlur stdDeviation="10" result="effect1_foregroundBlur_1_621"/>
</filter>
<filter id="filter1_d_1_621" x="0.0700684" y="6.46777" width="187.16" height="139.532" filterUnits="userSpaceOnUse" color-interpolation-filters="sRGB">
<feFlood flood-opacity="0" result="BackgroundImageFix"/>
<feColorMatrix in="SourceAlpha" type="matrix" values="0 0 0 0 0 0 0 0 0 0 0 0 0 0 0 0 0 0 127 0" result="hardAlpha"/>
<feOffset dx="10" dy="2"/>
<feGaussianBlur stdDeviation="15"/>
<feColorMatrix type="matrix" values="0 0 0 0 0.501961 0 0 0 0 0.501961 0 0 0 0 0.501961 0 0 0 0.302 0"/>
<feBlend mode="normal" in2="BackgroundImageFix" result="effect1_dropShadow_1_621"/>
<feBlend mode="normal" in="SourceGraphic" in2="effect1_dropShadow_1_621" result="shape"/>
</filter>
<linearGradient id="paint0_linear_1_621" x1="83.6586" y1="34.4688" x2="120.597" y2="123.776" gradientUnits="userSpaceOnUse">
<stop stop-color="white" stop-opacity="0.604"/>
<stop offset="1" stop-color="white" stop-opacity="0.2"/>
</linearGradient>
</defs>
</svg>
