<svg width="35" height="35" viewBox="0 0 35 35" fill="none" xmlns="http://www.w3.org/2000/svg">
<g clip-path="url(#clip0_2716_37)">
<path d="M17.5 34.6035L8.21917 25.3227C6.38362 23.4871 5.13361 21.1485 4.62719 18.6025C4.12077 16.0565 4.3807 13.4175 5.3741 11.0192C6.36751 8.62096 8.04977 6.57113 10.2082 5.12894C12.3666 3.68676 14.9041 2.91699 17.5 2.91699C20.0959 2.91699 22.6335 3.68676 24.7918 5.12894C26.9502 6.57113 28.6325 8.62096 29.6259 11.0192C30.6193 13.4175 30.8792 16.0565 30.3728 18.6025C29.8664 21.1485 28.6164 23.4871 26.7808 25.3227L17.5 34.6035ZM24.7188 23.2606C26.1463 21.8329 27.1185 20.014 27.5123 18.0338C27.9061 16.0536 27.7038 14.0011 26.9312 12.1358C26.1585 10.2705 24.8501 8.67628 23.1713 7.55462C21.4926 6.43296 19.519 5.83428 17.5 5.83428C15.481 5.83428 13.5074 6.43296 11.8287 7.55462C10.1499 8.67628 8.84151 10.2705 8.06883 12.1358C7.29616 14.0011 7.09394 16.0536 7.48775 18.0338C7.88155 20.014 8.8537 21.8329 10.2813 23.2606L17.5 30.4794L24.7188 23.2606ZM17.5 18.9585C16.7265 18.9585 15.9846 18.6513 15.4376 18.1043C14.8906 17.5573 14.5833 16.8154 14.5833 16.0419C14.5833 15.2683 14.8906 14.5265 15.4376 13.9795C15.9846 13.4325 16.7265 13.1252 17.5 13.1252C18.2736 13.1252 19.0154 13.4325 19.5624 13.9795C20.1094 14.5265 20.4167 15.2683 20.4167 16.0419C20.4167 16.8154 20.1094 17.5573 19.5624 18.1043C19.0154 18.6513 18.2736 18.9585 17.5 18.9585Z" fill="white"/>
</g>
<defs>
<clipPath id="clip0_2716_37">
<rect width="35" height="35" fill="white"/>
</clipPath>
</defs>
</svg>
