<svg width="250" height="249" viewBox="0 0 250 249" fill="none" xmlns="http://www.w3.org/2000/svg">
<path d="M119.783 6.63721C127.912 6.63551 136.02 7.45703 143.983 9.0892C159.355 12.2557 173.95 18.4286 186.929 27.2532C204.91 39.4408 219.277 56.2472 228.519 75.9059C237.76 95.5646 241.536 117.35 239.449 138.972C237.361 160.594 229.488 181.255 216.657 198.783C203.825 216.311 186.509 230.058 166.528 238.581C159.265 241.667 151.712 244.024 143.983 245.615C127.221 249.014 109.928 248.802 93.2551 244.994C76.582 241.185 60.9118 233.868 47.2885 223.528C33.6651 213.189 22.4012 200.066 14.2472 185.032C6.09315 169.998 1.23621 153.4 -0.000152588 136.342C13.1431 139.417 26.7956 139.613 40.0219 136.918C51.8911 134.487 63.1656 129.743 73.2018 122.956C88.1205 112.885 99.7985 98.7044 106.821 82.1312C109.194 76.5179 111.005 70.6834 112.228 64.7132C114.834 51.9222 114.737 38.7278 111.945 25.9762C110.539 19.5993 108.461 13.3895 105.745 7.4512C110.404 6.90865 115.092 6.63686 119.783 6.63721Z" fill="#713FFD"/>
<g filter="url(#filter0_f_1_1955)">
<path d="M201.052 43.9552C174.091 19.6794 138.772 14.9523 122.164 33.3969C105.557 51.8415 113.95 86.4732 140.911 110.749C167.872 135.025 203.191 139.752 219.799 121.307C236.406 102.863 228.013 68.231 201.052 43.9552Z" fill="#A586FC"/>
</g>
<defs>
<filter id="filter0_f_1_1955" x="93.6382" y="2.14575" width="154.687" height="150.413" filterUnits="userSpaceOnUse" color-interpolation-filters="sRGB">
<feFlood flood-opacity="0" result="BackgroundImageFix"/>
<feBlend mode="normal" in="SourceGraphic" in2="BackgroundImageFix" result="shape"/>
<feGaussianBlur stdDeviation="10" result="effect1_foregroundBlur_1_1955"/>
</filter>
</defs>
</svg>
