<svg width="433" height="378" viewBox="0 0 433 378" fill="none" xmlns="http://www.w3.org/2000/svg">
<path d="M135.979 204.359C136.695 204.377 143.961 229.607 143.961 239.411C143.961 249.215 140.387 257.164 135.979 257.164C131.571 257.164 127.997 249.216 127.997 239.412C127.997 229.608 135.263 204.342 135.979 204.359Z" fill="#42A0F0"/>
<path d="M132.122 242.411C133.288 242.768 134.824 241.125 135.553 238.742C136.281 236.359 135.927 234.138 134.76 233.782C133.594 233.425 132.058 235.068 131.33 237.451C130.601 239.834 130.956 242.055 132.122 242.411Z" fill="white"/>
<path d="M191.37 204.359C192.086 204.377 199.352 229.607 199.352 239.411C199.352 249.215 195.778 257.164 191.37 257.164C186.962 257.164 183.388 249.216 183.388 239.412C183.388 229.608 190.654 204.342 191.37 204.359Z" fill="#42A0F0"/>
<path d="M187.513 242.411C188.679 242.768 190.215 241.125 190.944 238.742C191.672 236.359 191.318 234.138 190.152 233.782C188.985 233.425 187.449 235.068 186.721 237.451C185.992 239.834 186.347 242.055 187.513 242.411Z" fill="white"/>
<path d="M250.797 204.359C251.513 204.377 258.779 229.607 258.779 239.411C258.779 249.215 255.205 257.164 250.797 257.164C246.389 257.164 242.815 249.216 242.815 239.412C242.815 229.608 250.081 204.342 250.797 204.359Z" fill="#42A0F0"/>
<path d="M246.94 242.411C248.106 242.768 249.642 241.125 250.371 238.742C251.099 236.359 250.744 234.138 249.578 233.782C248.412 233.425 246.876 235.068 246.148 237.451C245.419 239.834 245.774 242.055 246.94 242.411Z" fill="white"/>
<path d="M305.684 201.359C306.4 201.377 313.666 226.607 313.666 236.411C313.666 246.215 310.092 254.164 305.684 254.164C301.276 254.164 297.702 246.216 297.702 236.412C297.702 226.608 304.968 201.342 305.684 201.359Z" fill="#42A0F0"/>
<path d="M301.827 239.411C302.993 239.768 304.529 238.125 305.258 235.742C305.986 233.359 305.632 231.138 304.466 230.782C303.299 230.425 301.763 232.068 301.035 234.451C300.306 236.834 300.661 239.055 301.827 239.411Z" fill="white"/>
<path d="M219.336 271.359C220.052 271.377 227.318 296.607 227.318 306.411C227.318 316.215 223.744 324.164 219.336 324.164C214.928 324.164 211.354 316.216 211.354 306.412C211.354 296.608 218.62 271.342 219.336 271.359Z" fill="#42A0F0"/>
<path d="M215.479 309.411C216.645 309.768 218.181 308.125 218.91 305.742C219.638 303.359 219.284 301.138 218.117 300.782C216.951 300.425 215.415 302.068 214.687 304.451C213.958 306.834 214.313 309.055 215.479 309.411Z" fill="white"/>
<path d="M278.762 271.359C279.478 271.377 286.744 296.607 286.744 306.411C286.744 316.215 283.17 324.164 278.762 324.164C274.354 324.164 270.78 316.216 270.78 306.412C270.78 296.608 278.046 271.342 278.762 271.359Z" fill="#42A0F0"/>
<path d="M274.905 309.411C276.071 309.768 277.607 308.125 278.336 305.742C279.065 303.359 278.71 301.138 277.544 300.782C276.377 300.425 274.842 302.068 274.113 304.451C273.384 306.834 273.739 309.055 274.905 309.411Z" fill="white"/>
<path d="M341.684 271.359C342.4 271.377 349.666 296.607 349.666 306.411C349.666 316.215 346.092 324.164 341.684 324.164C337.276 324.164 333.702 316.216 333.702 306.412C333.702 296.608 340.968 271.342 341.684 271.359Z" fill="#42A0F0"/>
<path d="M337.827 309.411C338.993 309.768 340.529 308.125 341.258 305.742C341.986 303.359 341.632 301.138 340.466 300.782C339.299 300.425 337.763 302.068 337.035 304.451C336.306 306.834 336.661 309.055 337.827 309.411Z" fill="white"/>
<path d="M159.91 274.359C160.626 274.377 167.892 299.607 167.892 309.411C167.892 319.215 164.318 327.164 159.91 327.164C155.502 327.164 151.928 319.216 151.928 309.412C151.928 299.608 159.194 274.342 159.91 274.359Z" fill="#42A0F0"/>
<path d="M156.053 312.411C157.219 312.768 158.755 311.125 159.484 308.742C160.213 306.359 159.858 304.138 158.692 303.782C157.525 303.425 155.989 305.068 155.261 307.451C154.532 309.834 154.887 312.055 156.053 312.411Z" fill="white"/>
<path d="M103.979 271.359C104.695 271.377 111.961 296.607 111.961 306.411C111.961 316.215 108.387 324.164 103.979 324.164C99.5711 324.164 95.9971 316.216 95.9971 306.412C95.9971 296.608 103.263 271.342 103.979 271.359Z" fill="#42A0F0"/>
<path d="M100.122 309.411C101.288 309.768 102.824 308.125 103.553 305.742C104.281 303.359 103.927 301.138 102.76 300.782C101.594 300.425 100.058 302.068 99.3297 304.451C98.6012 306.834 98.9559 309.055 100.122 309.411Z" fill="white"/>
<path d="M135.979 324.359C136.695 324.377 143.961 349.607 143.961 359.411C143.961 369.215 140.387 377.164 135.979 377.164C131.571 377.164 127.997 369.216 127.997 359.412C127.997 349.608 135.263 324.342 135.979 324.359Z" fill="#42A0F0"/>
<path d="M132.122 362.411C133.288 362.768 134.824 361.125 135.553 358.742C136.281 356.359 135.927 354.138 134.76 353.782C133.594 353.425 132.058 355.068 131.33 357.451C130.601 359.834 130.956 362.055 132.122 362.411Z" fill="white"/>
<path d="M191.37 324.359C192.086 324.377 199.352 349.607 199.352 359.411C199.352 369.215 195.778 377.164 191.37 377.164C186.962 377.164 183.388 369.216 183.388 359.412C183.388 349.608 190.654 324.342 191.37 324.359Z" fill="#42A0F0"/>
<path d="M187.513 362.411C188.679 362.768 190.215 361.125 190.944 358.742C191.672 356.359 191.318 354.138 190.152 353.782C188.985 353.425 187.449 355.068 186.721 357.451C185.992 359.834 186.347 362.055 187.513 362.411Z" fill="white"/>
<path d="M250.797 324.359C251.513 324.377 258.779 349.607 258.779 359.411C258.779 369.215 255.205 377.164 250.797 377.164C246.389 377.164 242.815 369.216 242.815 359.412C242.815 349.608 250.081 324.342 250.797 324.359Z" fill="#42A0F0"/>
<path d="M246.94 362.411C248.106 362.768 249.642 361.125 250.371 358.742C251.099 356.359 250.744 354.138 249.578 353.782C248.412 353.425 246.876 355.068 246.148 357.451C245.419 359.834 245.774 362.055 246.94 362.411Z" fill="white"/>
<path d="M305.684 324.359C306.4 324.377 313.666 349.607 313.666 359.411C313.666 369.215 310.092 377.164 305.684 377.164C301.276 377.164 297.702 369.216 297.702 359.412C297.702 349.608 304.968 324.342 305.684 324.359Z" fill="#42A0F0"/>
<path d="M301.827 362.411C302.993 362.768 304.529 361.125 305.258 358.742C305.986 356.359 305.632 354.138 304.466 353.782C303.299 353.425 301.763 355.068 301.035 357.451C300.306 359.834 300.661 362.055 301.827 362.411Z" fill="white"/>
<path d="M103.268 6.72311C110.278 6.72136 117.27 7.42963 124.137 8.83711C137.39 11.5668 149.974 16.8888 161.164 24.4971C176.667 35.0048 189.053 49.4945 197.021 66.4436C204.989 83.3926 208.244 102.175 206.444 120.817C204.644 139.458 197.856 157.271 186.793 172.383C175.73 187.495 160.801 199.347 143.574 206.695C137.312 209.356 130.8 211.388 124.136 212.76C109.685 215.69 94.7754 215.508 80.4005 212.224C66.0257 208.941 52.5155 202.632 40.77 193.718C29.0244 184.804 19.3132 173.489 12.2832 160.528C5.25319 147.566 1.06578 133.256 -7.62939e-05 118.549C11.3314 121.201 23.1023 121.372 34.5059 119.049C44.7389 116.953 54.4592 112.863 63.1119 107.012C75.9742 98.3288 86.0422 86.1017 92.0959 71.8121C94.1414 66.9726 95.7027 61.9424 96.7569 56.7951C99.004 45.7664 98.9209 34.3898 96.5129 23.3951C95.3016 17.8974 93.5102 12.5437 91.1689 7.42412C95.185 6.95677 99.2248 6.7227 103.268 6.72311Z" fill="#713FFD"/>
<g filter="url(#filter0_f_1_3095)">
<path d="M173.339 38.8964C150.095 17.9669 119.644 13.8916 105.325 29.7941C91.0067 45.6965 98.2426 75.5547 121.487 96.4842C144.732 117.414 175.183 121.489 189.501 105.586C203.82 89.6841 196.584 59.8259 173.339 38.8964Z" fill="#A586FC"/>
</g>
<g filter="url(#filter1_d_1_3095)">
<path d="M302.346 282.002H110.914C92.3436 281.988 74.4986 274.791 61.1147 261.917C47.7308 249.043 39.8457 231.491 39.1102 212.935C38.3747 194.38 44.8457 176.259 57.1687 162.366C69.4916 148.473 86.711 139.886 105.222 138.402C107.862 119.762 116.279 102.419 129.29 88.8121C142.3 75.2054 159.249 66.0201 177.753 62.5485C196.256 59.0769 215.382 61.4937 232.44 69.4589C249.498 77.424 263.629 90.5367 272.846 106.952C289.751 101.1 308.016 100.416 325.311 104.988C342.606 109.559 358.147 119.179 369.953 132.619C381.758 146.06 389.293 162.712 391.595 180.452C393.897 198.192 390.863 216.216 382.88 232.225C378.195 246.69 369.048 259.298 356.752 268.241C344.456 277.184 329.642 282.002 314.438 282.002H302.346Z" fill="url(#paint0_linear_1_3095)"/>
<path d="M314.438 281.002C322.158 281.002 329.749 279.769 336.999 277.338C344.01 274.987 350.591 271.556 356.561 267.141C362.463 262.777 367.636 257.549 371.937 251.603C376.291 245.582 379.653 238.959 381.928 231.917L381.952 231.845L381.986 231.777C385.012 225.73 387.342 219.333 388.912 212.763C390.527 206.002 391.346 199.017 391.346 192.002C391.346 185.963 390.738 179.928 389.538 174.064C388.369 168.35 386.624 162.73 384.353 157.359C382.122 152.086 379.362 147 376.147 142.242C372.963 137.529 369.307 133.097 365.279 129.069C361.251 125.042 356.82 121.385 352.107 118.201C347.349 114.987 342.262 112.226 336.989 109.995C331.618 107.724 325.998 105.979 320.284 104.81C314.421 103.61 308.386 103.002 302.346 103.002C292.347 103.002 282.532 104.647 273.173 107.893L272.384 108.167L271.974 107.438C264.358 93.8965 253.28 82.5239 239.938 74.5501C233.19 70.5175 225.941 67.4012 218.392 65.2879C210.603 63.1077 202.513 62.0022 194.346 62.0022C183.362 62.0022 172.639 63.9792 162.476 67.8782C152.658 71.6449 143.651 77.0859 135.706 84.0502C127.807 90.9744 121.252 99.1444 116.222 108.333C111.069 117.747 107.702 127.909 106.212 138.537L106.101 139.333L105.3 139.395C96.3418 140.096 87.7229 142.455 79.6828 146.405C71.8703 150.244 64.8942 155.436 58.948 161.837C46.7298 174.989 40.001 192.125 40.001 210.089C40.001 219.663 41.8757 228.949 45.5732 237.691C47.3504 241.893 49.5501 245.945 52.1112 249.736C54.6482 253.491 57.5617 257.023 60.7709 260.232C63.9801 263.441 67.5113 266.355 71.2665 268.892C75.0574 271.453 79.11 273.652 83.3116 275.429C92.0534 279.127 101.34 281.002 110.914 281.002H302.346H314.438ZM314.438 282.002H302.346H110.914C71.1976 282.002 39.001 249.805 39.001 210.089C39.001 172.288 68.1656 141.299 105.222 138.398C111.351 94.6596 148.918 61.0022 194.346 61.0022C228.048 61.0022 257.423 79.5254 272.846 106.948C282.088 103.743 292.013 102.002 302.346 102.002C352.052 102.002 392.346 142.297 392.346 192.002C392.346 206.458 388.937 220.121 382.88 232.225C373.545 261.11 346.432 282.002 314.438 282.002Z" fill="white" fill-opacity="0.5"/>
</g>
<defs>
<filter id="filter0_f_1_3095" x="77.9741" y="0.0935059" width="138.878" height="135.194" filterUnits="userSpaceOnUse" color-interpolation-filters="sRGB">
<feFlood flood-opacity="0" result="BackgroundImageFix"/>
<feBlend mode="normal" in="SourceGraphic" in2="BackgroundImageFix" result="shape"/>
<feGaussianBlur stdDeviation="10" result="effect1_foregroundBlur_1_3095"/>
</filter>
<filter id="filter1_d_1_3095" x="19.001" y="33.0022" width="413.345" height="281" filterUnits="userSpaceOnUse" color-interpolation-filters="sRGB">
<feFlood flood-opacity="0" result="BackgroundImageFix"/>
<feColorMatrix in="SourceAlpha" type="matrix" values="0 0 0 0 0 0 0 0 0 0 0 0 0 0 0 0 0 0 127 0" result="hardAlpha"/>
<feOffset dx="10" dy="2"/>
<feGaussianBlur stdDeviation="15"/>
<feColorMatrix type="matrix" values="0 0 0 0 0.501961 0 0 0 0 0.501961 0 0 0 0 0.501961 0 0 0 0.302 0"/>
<feBlend mode="normal" in2="BackgroundImageFix" result="effect1_dropShadow_1_3095"/>
<feBlend mode="normal" in="SourceGraphic" in2="effect1_dropShadow_1_3095" result="shape"/>
</filter>
<linearGradient id="paint0_linear_1_3095" x1="215.699" y1="61.0046" x2="318.342" y2="309.168" gradientUnits="userSpaceOnUse">
<stop stop-color="white" stop-opacity="0.604"/>
<stop offset="1" stop-color="white" stop-opacity="0.2"/>
</linearGradient>
</defs>
</svg>
